<svg xmlns="http://www.w3.org/2000/svg" viewBox="0 0 64 64"><g id="Layer_31" data-name="Layer 31"><polygon points="11 5 3 8 11 11 19 8 11 5" style="fill:#f7b237"/><polygon points="3 8 3 18 11 21 19 18 19 8 11 11 3 8" style="fill:#fcbe42"/><polygon points="11 43 3 46 11 49 19 46 11 43" style="fill:#f7b237"/><polygon points="3 46 3 56 11 59 19 56 19 46 11 49 3 46" style="fill:#fcbe42"/><polygon points="53 5 45 8 53 11 61 8 53 5" style="fill:#f7b237"/><polygon points="45 8 45 18 53 21 61 18 61 8 53 11 45 8" style="fill:#fcbe42"/><polygon points="53 43 45 46 53 49 61 46 53 43" style="fill:#f7b237"/><polygon points="45 46 45 56 53 59 61 56 61 46 53 49 45 46" style="fill:#fcbe42"/><circle cx="32" cy="32" r="13" style="fill:#2678db"/><circle cx="32" cy="32" r="10" style="fill:#62b5e8"/><polygon points="32 26 27 29 27 35 32 38 37 35 37 29 32 26" style="fill:#fcbe42"/><path d="M61.351,18.937A1,1,0,0,0,62,18V8a1,1,0,0,0-.649-.937l-8-3a1.009,1.009,0,0,0-.7,0l-8,3A1,1,0,0,0,44,8v4H20V8a1,1,0,0,0-.649-.937l-8-3a1.009,1.009,0,0,0-.7,0l-8,3A1,1,0,0,0,2,8V18a1,1,0,0,0,.649.937L10,21.693V42.307L2.649,45.063A1,1,0,0,0,2,46V56a1,1,0,0,0,.649.937l8,3a1.009,1.009,0,0,0,.7,0l8-3A1,1,0,0,0,20,56V52H44v4a1,1,0,0,0,.649.937l8,3a1.009,1.009,0,0,0,.7,0l8-3A1,1,0,0,0,62,56V46a1,1,0,0,0-.649-.937L54,42.307V21.693ZM53,47.932,47.848,46,53,44.068,58.152,46Zm-42,0L5.848,46,11,44.068,16.152,46Zm1-36.239,6-2.25v7.864l-6,2.25Zm6.748,33.144L12,42.307V21.693l6.748-2.53,3.16,3.159a13.938,13.938,0,0,0,0,19.356ZM20,32A12,12,0,1,1,32,44,12.013,12.013,0,0,1,20,32Zm26,0a13.942,13.942,0,0,0-3.908-9.678l3.16-3.159L52,21.693V42.307l-6.748,2.53-3.16-3.159A13.942,13.942,0,0,0,46,32Zm6-20.307v7.864l-6-2.25V9.443Zm2,7.864V11.693l6-2.25v7.864ZM53,6.068,58.152,8,53,9.932,47.848,8ZM44,14v3.586L40.606,20.98a13.917,13.917,0,0,0-17.212,0L20,17.586V14ZM11,6.068,16.152,8,11,9.932,5.848,8ZM4,9.443l6,2.25v7.864l-6-2.25Zm0,38,6,2.25v7.864l-6-2.25Zm8,10.114V49.693l6-2.25v7.864ZM20,50V46.414l3.394-3.394a13.917,13.917,0,0,0,17.212,0L44,46.414V50Zm26-2.557,6,2.25v7.864l-6-2.25Zm8,10.114V49.693l6-2.25v7.864Z"/><path d="M43,32A11,11,0,1,0,32,43,11.013,11.013,0,0,0,43,32ZM23,32a9,9,0,1,1,9,9A9.011,9.011,0,0,1,23,32Z"/><path d="M32.515,38.857l5-3A1,1,0,0,0,38,35V29a1,1,0,0,0-.485-.857l-5-3a1,1,0,0,0-1.03,0l-5,3A1,1,0,0,0,26,29v6a1,1,0,0,0,.485.857l5,3a1,1,0,0,0,1.03,0ZM28,34.434V29.566l4-2.4,4,2.4v4.868l-4,2.4Z"/></g></svg>