<svg xmlns="http://www.w3.org/2000/svg" viewBox="0 0 64 64"><g id="Layer_31" data-name="Layer 31"><circle cx="32" cy="5" r="2" style="fill:#0a68c6"/><circle cx="49" cy="9" r="2" style="fill:#0a68c6"/><circle cx="57" cy="19" r="2" style="fill:#0a68c6"/><circle cx="32" cy="59" r="2" style="fill:#0a68c6"/><circle cx="59" cy="32" r="2" style="fill:#0a68c6"/><circle cx="5" cy="32" r="2" style="fill:#0a68c6"/><circle cx="15" cy="9" r="2" style="fill:#0a68c6"/><circle cx="7" cy="19" r="2" style="fill:#0a68c6"/><circle cx="49" cy="55" r="2" style="fill:#0a68c6"/><circle cx="57" cy="45" r="2" style="fill:#0a68c6"/><circle cx="15" cy="55" r="2" style="fill:#0a68c6"/><circle cx="7" cy="45" r="2" style="fill:#0a68c6"/><circle cx="32" cy="32" r="19" style="fill:#0a68c6"/><circle cx="32" cy="32" r="16" style="fill:#62b5e8"/><polygon points="32 35 27 31 32 20 37 31 32 35" style="fill:#fcbe42"/><polygon points="27 35 32 39 37 35 32 44 27 35" style="fill:#fcbe42"/><path d="M32,15A17,17,0,1,0,49,32,17.019,17.019,0,0,0,32,15Zm0,32A15,15,0,1,1,47,32,15.017,15.017,0,0,1,32,47Z"/><path d="M32.91,19.586a1,1,0,0,0-1.82,0l-5,11a1,1,0,0,0,.285,1.2l5,4a1,1,0,0,0,1.25,0l5-4a1,1,0,0,0,.285-1.2ZM32,33.719l-3.768-3.014L32,22.417l3.768,8.288Z"/><path d="M36.375,34.219,32,37.719l-4.375-3.5a1,1,0,0,0-1.5,1.267l5,9a1,1,0,0,0,1.748,0l5-9a1,1,0,0,0-1.5-1.267ZM32,41.941l-1.66-2.988,1.035.828a1,1,0,0,0,1.25,0l1.035-.828Z"/><path d="M56.184,33a3,3,0,1,0,0-2H51.949a19.847,19.847,0,0,0-2.266-8.317l.024.024L52.414,20h1.77a3,3,0,1,0,0-2H52a1,1,0,0,0-.707.293l-2.645,2.645A20.164,20.164,0,0,0,43,15.314V10h3.184a3,3,0,1,0,0-2H42a1,1,0,0,0-1,1v5.164a19.816,19.816,0,0,0-8-2.113V7.816a3,3,0,1,0-2,0v4.235a19.816,19.816,0,0,0-8,2.113V9a1,1,0,0,0-1-1H17.816a3,3,0,1,0,0,2H21v5.314a20.164,20.164,0,0,0-5.648,5.624l-2.645-2.645A1,1,0,0,0,12,18H9.816a3,3,0,1,0,0,2h1.77l2.707,2.707.024-.024A19.847,19.847,0,0,0,12.051,31H7.816a3,3,0,1,0,0,2h4.235a19.847,19.847,0,0,0,2.266,8.317l-.024-.024L11.586,44H9.816a3,3,0,1,0,0,2H12a1,1,0,0,0,.707-.293l2.645-2.645A20.164,20.164,0,0,0,21,48.686V54H17.816a3,3,0,1,0,0,2H22a1,1,0,0,0,1-1V49.836a19.816,19.816,0,0,0,8,2.113v4.235a3,3,0,1,0,2,0V51.949a19.816,19.816,0,0,0,8-2.113V55a1,1,0,0,0,1,1h4.184a3,3,0,1,0,0-2H43V48.686a20.164,20.164,0,0,0,5.648-5.624l2.645,2.645A1,1,0,0,0,52,46h2.184a3,3,0,1,0,0-2h-1.77l-2.707-2.707-.024.024A19.847,19.847,0,0,0,51.949,33ZM57,18a1,1,0,1,1-1,1A1,1,0,0,1,57,18ZM49,8a1,1,0,1,1-1,1A1,1,0,0,1,49,8ZM15,10a1,1,0,1,1,1-1A1,1,0,0,1,15,10ZM7,20a1,1,0,1,1,1-1A1,1,0,0,1,7,20ZM7,46a1,1,0,1,1,1-1A1,1,0,0,1,7,46Zm8,10a1,1,0,1,1,1-1A1,1,0,0,1,15,56Zm34-2a1,1,0,1,1-1,1A1,1,0,0,1,49,54Zm8-10a1,1,0,1,1-1,1A1,1,0,0,1,57,44Zm2-13a1,1,0,1,1-1,1A1,1,0,0,1,59,31ZM32,4a1,1,0,1,1-1,1A1,1,0,0,1,32,4ZM5,33a1,1,0,1,1,1-1A1,1,0,0,1,5,33ZM32,60a1,1,0,1,1,1-1A1,1,0,0,1,32,60Zm0-10A18,18,0,1,1,50,32,18.021,18.021,0,0,1,32,50Z"/></g></svg>